HIERARCHY
ROOT Character1_Hips
{
  OFFSET -32.577 102.068 -114.726
  CHANNELS 6 Xposition Yposition Zposition Zrotation Xrotation Yrotation
  JOINT Character1_Spine
  {
    OFFSET 0 8.754 -1.339
    CHANNELS 3 Zrotation Xrotation Yrotation
    JOINT Character1_Spine1
    {
      OFFSET 0 10.855 -0.645
      CHANNELS 3 Zrotation Xrotation Yrotation
      JOINT Character1_LeftShoulder
      {
        OFFSET 1.467 27.745 1.178
        CHANNELS 3 Zrotation Xrotation Yrotation
        JOINT Character1_LeftArm
        {
          OFFSET 18.486 -1.858 0.275
          CHANNELS 3 Zrotation Xrotation Yrotation
          JOINT Character1_LeftForeArm
          {
            OFFSET 31.798 2.36 2.921
            CHANNELS 3 Zrotation Xrotation Yrotation
            JOINT Character1_LeftHand
            {
              OFFSET 29.001 1.642 2.112
              CHANNELS 3 Zrotation Xrotation Yrotation
              End Site
              {
                OFFSET 0.269758 0.141128 0.89614
              }
            }
            JOINT L_Radius_RIGMESH
            {
              OFFSET 0.592911 0.209926 -0.435177
              CHANNELS 3 Zrotation Xrotation Yrotation
              End Site
              {
                OFFSET 0 0 0
              }
            }
          }
          JOINT L_Humerus_RIGMESH
          {
            OFFSET 0.000383861 -0.000257932 -6.47351e-005
            CHANNELS 3 Zrotation Xrotation Yrotation
            End Site
            {
              OFFSET 0 0 0
            }
          }
        }
        JOINT L_Shoulder_RIGMESH
        {
          OFFSET 3.24498e-005 -0.000608592 -0.000527677
          CHANNELS 3 Zrotation Xrotation Yrotation
          End Site
          {
            OFFSET 0 0 0
          }
        }
      }
      JOINT Character1_RightShoulder
      {
        OFFSET -1.467 27.745 1.178
        CHANNELS 3 Zrotation Xrotation Yrotation
        JOINT Character1_RightArm
        {
          OFFSET -18.486 -1.858 0.275
          CHANNELS 3 Zrotation Xrotation Yrotation
          JOINT Character1_RightForeArm
          {
            OFFSET -31.798 2.35964 2.92082
            CHANNELS 3 Zrotation Xrotation Yrotation
            JOINT Character1_RightHand
            {
              OFFSET -29.0007 1.64167 2.112
              CHANNELS 3 Zrotation Xrotation Yrotation
              End Site
              {
                OFFSET 161.773 0.141827 0.896322
              }
            }
            JOINT R_Radius_RIGMESH
            {
              OFFSET 104.095 0.21029 -0.434995
              CHANNELS 3 Zrotation Xrotation Yrotation
              End Site
              {
                OFFSET 0 0 0
              }
            }
          }
          JOINT R_Humerus_RIGMESH
          {
            OFFSET 39.9064 -0.000257932 -6.47351e-005
            CHANNELS 3 Zrotation Xrotation Yrotation
            End Site
            {
              OFFSET 0 0 0
            }
          }
        }
        JOINT R_Shoulder_RIGMESH
        {
          OFFSET -3.24498e-005 -0.000608592 -0.000527677
          CHANNELS 3 Zrotation Xrotation Yrotation
          End Site
          {
            OFFSET 0 0 0
          }
        }
      }
      JOINT Character1_Neck
      {
        OFFSET 0 30.836 0.626
        CHANNELS 3 Zrotation Xrotation Yrotation
        JOINT Character1_Head
        {
          OFFSET 0 8.074 3.498
          CHANNELS 3 Zrotation Xrotation Yrotation
          End Site
          {
            OFFSET 0 -0.00153379 1.54668e-005
          }
        }
        JOINT Neck_RIGMESH
        {
          OFFSET -0.124055 0.00785685 1.28337
          CHANNELS 3 Zrotation Xrotation Yrotation
          End Site
          {
            OFFSET 0 0 0
          }
        }
      }
      JOINT Torso_RIGMESH
      {
        OFFSET 0 -0.000828813 -0.000380861
        CHANNELS 3 Zrotation Xrotation Yrotation
        End Site
        {
          OFFSET 0 0 0
        }
      }
    }
    JOINT Spine_RIGMESH
    {
      OFFSET 0.00325007 -0.0391337 -0.174576
      CHANNELS 3 Zrotation Xrotation Yrotation
      End Site
      {
        OFFSET 0 0 0
      }
    }
  }
  JOINT Character1_RightUpLeg
  {
    OFFSET -9.035 -4.63425 1.845
    CHANNELS 3 Zrotation Xrotation Yrotation
    JOINT Character1_RightLeg
    {
      OFFSET -0.919521 -40.345 1.155
      CHANNELS 3 Zrotation Xrotation Yrotation
      JOINT Character1_RightFoot
      {
        OFFSET 1.95452 -45.2655 -4.18888
        CHANNELS 3 Zrotation Xrotation Yrotation
        JOINT Character1_RightToeBase
        {
          OFFSET 1.87056 -6.69517 14.7145
          CHANNELS 3 Zrotation Xrotation Yrotation
          End Site
          {
            OFFSET 0 0 0
          }
        }
        JOINT R_Talus_RIGMESH
        {
          OFFSET 8 -7.75529 4.18888
          CHANNELS 3 Zrotation Xrotation Yrotation
          End Site
          {
            OFFSET 0 0 0
          }
        }
      }
      JOINT R_Tibia_RIGMESH
      {
        OFFSET 0 0 0
        CHANNELS 3 Zrotation Xrotation Yrotation
        End Site
        {
          OFFSET 0 0 0
        }
      }
    }
    JOINT R_Femur_RIGMESH
    {
      OFFSET 0 0 0
      CHANNELS 3 Zrotation Xrotation Yrotation
      End Site
      {
        OFFSET 0 0 0
      }
    }
  }
  JOINT Character1_LeftUpLeg
  {
    OFFSET 9.035 -4.63425 1.845
    CHANNELS 3 Zrotation Xrotation Yrotation
    JOINT Character1_LeftLeg
    {
      OFFSET 0.919521 -40.345 1.155
      CHANNELS 3 Zrotation Xrotation Yrotation
      JOINT Character1_LeftFoot
      {
        OFFSET -1.95452 -45.2655 -4.18888
        CHANNELS 3 Zrotation Xrotation Yrotation
        JOINT Character1_LeftToeBase
        {
          OFFSET -1.87056 -6.69517 14.7145
          CHANNELS 3 Zrotation Xrotation Yrotation
          End Site
          {
            OFFSET 0 0 0
          }
        }
        JOINT L_Talus_RIGMESH
        {
          OFFSET -8 -7.75529 4.18888
          CHANNELS 3 Zrotation Xrotation Yrotation
          End Site
          {
            OFFSET 0 0 0
          }
        }
      }
      JOINT L_Tibia_RIGMESH
      {
        OFFSET 0 0 0
        CHANNELS 3 Zrotation Xrotation Yrotation
        End Site
        {
          OFFSET 0 0 0
        }
      }
    }
    JOINT L_Femur_RIGMESH
    {
      OFFSET 0 0 0
      CHANNELS 3 Zrotation Xrotation Yrotation
      End Site
      {
        OFFSET 0 0 0
      }
    }
  }
  JOINT Pelvis_RIGMESH
  {
    OFFSET 0 0 0
    CHANNELS 3 Zrotation Xrotation Yrotation
    End Site
    {
      OFFSET 0 0 0
    }
  }
}
MOTION
Frames:	4
Frame Time:	0.00833333
-30.5073 104.521 -237.413 3.43058 -2.8926 -8.40971 -2.20695e-032 -3.97569e-016 -3.18055e-015 -5.17233 8.1794 2.98716 -7.54706 2.64314 -4.3864 -66.8062 29.9257 3.87051 0.245087 -0.103518 -19.4775 -3.18284 12.9988 3.22526 2.38542e-015 0 1.59028e-015 -2.38542e-015 -3.18055e-015 -4.77083e-015 7.95139e-016 0 -0 2.83471 1.18572 9.64735 73.0025 20.2153 -1.72576 -0.609169 -0.134549 9.11641 4.39642 23.03 -4.43533 -6.95746e-016 3.18055e-015 -5.96354e-016 -3.97569e-015 -3.18055e-015 -1.59028e-015 2.48481e-016 0 -7.95139e-016 1.10348e-032 7.95139e-016 -7.95139e-016 1.06806 -9.32775 8.02253 -1.85799 -9.96019 1.79163 1.10348e-032 7.95139e-016 -7.95139e-016 -1.6895 2.78346 0.81803 -8.55183 -19.9991 -0.359523 0.218977 54.8234 0.195567 5.88601 21.1025 -6.09542 0.247414 -8.63941 0.0216531 -1.59028e-015 -6.36111e-015 -3.18055e-015 -1.59028e-015 -3.18055e-015 -1.59028e-015 -1.19271e-015 0 -0 -4.90321 -5.73993 8.91374 1.80469 4.35113 -0.0671706 0.199747 1.54428 3.18677 0.0142347 0.110212 -0.00908156 -7.45443e-017 -3.97569e-016 7.95139e-016 3.10601e-018 1.59028e-015 -9.93923e-017 1.67725e-016 1.59028e-015 4.96962e-017 -2.20695e-032 -3.97569e-016 -3.18055e-015 
-30.4937 104.716 -236.43 3.33873 -2.99433 -8.07143 1.98785e-016 7.95139e-016 1.59028e-015 -5.02892 8.34074 2.53397 -7.39881 2.53052 -4.52146 -66.4297 29.9235 3.44355 0.244505 -0.10331 -19.7998 -2.96713 13.0059 3.07079 7.95139e-016 6.36111e-015 -0 7.95139e-016 0 -7.95139e-016 2.78299e-015 0 -0 2.90159 1.30091 9.534 73.2333 20.5475 -2.09706 -0.609704 -0.134634 8.88879 4.59039 23.2572 -4.56446 -2.73329e-015 -3.18055e-015 -1.2921e-015 3.97569e-016 0 -7.95139e-016 0 7.95139e-016 -0 4.41391e-032 -1.59028e-015 1.59028e-015 1.11309 -9.32049 8.05192 -1.83431 -9.9242 1.78245 4.41391e-032 -1.59028e-015 1.59028e-015 -1.66442 2.80273 0.748947 -8.32765 -20.9334 -0.601979 0.229782 55.3082 0.207211 5.93339 20.088 -5.52772 0.247433 -8.68896 0.021656 3.18055e-015 -9.54166e-015 3.18055e-015 7.95139e-016 -3.18055e-015 -1.59028e-015 3.97569e-016 0 -0 -5.09304 -4.14776 8.69854 1.84612 2.806 -0.0130332 0.0198913 1.64092 3.06911 0.014244 0.168564 -0.00908159 7.45443e-017 3.97569e-016 7.95139e-016 -2.48481e-017 0 -1.98785e-016 -3.04389e-016 0 1.98785e-016 1.98785e-016 7.95139e-016 1.59028e-015 
-30.5016 104.882 -235.471 3.20209 -3.04847 -7.67746 -4.96962e-017 7.95139e-016 -0 -4.81876 8.46998 2.07741 -7.18738 2.37067 -4.68466 -66.141 29.7674 3.04042 0.239109 -0.103075 -20.1594 -2.84181 13.1257 3.01769 -7.95139e-016 0 -1.59028e-015 7.95139e-016 0 3.97569e-015 3.97569e-016 -1.59028e-015 -0 2.94209 1.43005 9.39978 73.4516 20.7684 -2.50038 -0.609816 -0.134652 8.84109 4.69055 23.284 -4.62645 7.01958e-016 0 -1.81391e-015 3.97569e-015 0 -0 5.96354e-016 -7.95139e-016 -0 9.93923e-017 -7.95139e-016 7.95139e-016 1.21287 -9.3016 8.03282 -1.78779 -9.85755 1.76203 9.93923e-017 -7.95139e-016 7.95139e-016 -1.61576 2.83324 0.628752 -8.07559 -21.5583 -0.902442 0.222565 54.8884 0.223053 6.13408 19.2078 -5.20519 0.247466 -8.77538 0.021661 3.53113e-031 -1.27222e-014 1.59028e-015 1.59028e-015 -3.18055e-015 -1.59028e-015 -1.98785e-015 0 -1.59028e-015 -5.163 -2.49768 8.49518 1.89511 0.976563 0.0755485 -0.369198 1.97555 2.8842 0.0142453 0.17699 -0.00908159 -1.2424e-016 3.97569e-016 7.95139e-016 -6.21202e-017 0 -0 6.1499e-016 1.59028e-015 1.98785e-016 -4.96962e-017 7.95139e-016 -0 
-30.5093 105.04 -234.513 3.06636 -3.10464 -7.2833 2.08724e-015 3.97569e-016 3.18055e-015 -4.60771 8.59675 1.61985 -6.97694 2.211 -4.84781 -65.8451 29.6048 2.67151 0.230142 -0.102774 -20.6096 -2.71614 13.2487 2.96464 7.95139e-016 -6.36111e-015 -7.95139e-016 3.18055e-015 0 3.97569e-015 1.19271e-015 0 1.59028e-015 2.98308 1.55943 9.2656 73.6659 20.9872 -2.90272 -0.605595 -0.134663 8.80976 4.79076 23.3109 -4.68847 -5.96354e-016 6.36111e-015 3.97569e-016 2.38542e-015 0 -0 -3.97569e-016 0 -0 -1.98785e-016 0 7.95139e-016 1.31241 -9.2817 8.01363 -1.72479 -9.76905 1.73362 -1.98785e-016 0 7.95139e-016 -1.55014 2.87176 0.472135 -7.82352 -22.1972 -1.20362 0.215788 54.4962 0.241571 6.33682 18.3044 -4.87836 0.247499 -8.86175 0.0216661 -1.59028e-015 3.18055e-015 -1.59028e-015 -7.95139e-016 0 -0 -8.82781e-032 3.18055e-015 1.59028e-015 -5.23712 -0.705533 8.29872 1.92887 -1.07812 0.176284 -0.753653 2.39698 2.69617 0.0142466 0.185417 -0.0090816 4.72114e-016 3.97569e-016 -0 -1.2424e-017 1.59028e-015 -1.98785e-016 -1.55301e-016 -1.19271e-015 -1.98785e-016 2.08724e-015 3.97569e-016 3.18055e-015 
